<?xml version="1.0" encoding="utf-8"?>
<!-- Generator: Adobe Illustrator 23.0.4, SVG Export Plug-In . SVG Version: 6.00 Build 0)  -->
<svg version="1.1" id="Layer_1" xmlns="http://www.w3.org/2000/svg" xmlns:xlink="http://www.w3.org/1999/xlink" x="0px" y="0px"
	 viewBox="0 0 132.1 109.8" style="enable-background:new 0 0 132.1 109.8;" xml:space="preserve">
<style type="text/css">
	.st0{fill:#231F20;}
	.st1{fill:#E61D36;}
</style>
<g>
	<path class="st0" d="M3.6,109.3V90.4H10c1.9,0,3.4,0.4,4.4,1.2c1,0.8,1.5,1.9,1.5,3.4c0,1.1-0.3,2.1-0.8,2.8
		c-0.6,0.7-1.4,1.2-2.4,1.5c1.3,0.3,2.2,0.9,2.9,1.7c0.7,0.8,1,1.9,1,3.2c0,1.7-0.5,3-1.6,3.8c-1.1,0.9-2.6,1.3-4.6,1.3H3.6z
		 M10.3,98.9c1.5,0,2.6-0.3,3.4-1c0.8-0.7,1.2-1.6,1.2-2.9c0-1.3-0.4-2.2-1.2-2.8s-2-0.9-3.7-0.9H4.7v7.6H10.3z M10.2,108.3
		c1.8,0,3.1-0.3,3.9-1c0.8-0.7,1.3-1.7,1.3-3.1c0-1.4-0.4-2.5-1.3-3.3c-0.8-0.7-2.1-1.1-3.7-1.1H4.7v8.5H10.2z"/>
	<path class="st0" d="M35.7,90.4h1.1v11.5c0,5.2-2.3,7.8-6.8,7.8c-2.3,0-3.9-0.7-5.1-2c-1.1-1.3-1.7-3.3-1.7-5.9V90.4h1.1V102
		c0,2.3,0.5,4,1.4,5.2s2.4,1.7,4.3,1.7s3.4-0.6,4.3-1.7c0.9-1.1,1.4-2.8,1.4-5.2V90.4z"/>
	<path class="st0" d="M56.4,109.3l-3.9-8.6c-0.4,0.1-0.9,0.1-1.6,0.1h-5.3v8.5h-1V90.4h6.2c4.1,0,6.2,1.7,6.2,5.1
		c0,1.3-0.3,2.4-0.9,3.2c-0.6,0.8-1.5,1.4-2.6,1.8l4.1,8.9H56.4z M50.8,99.8c1.7,0,3-0.3,3.8-1c0.8-0.7,1.2-1.8,1.2-3.3
		c0-1.4-0.4-2.5-1.2-3.2c-0.8-0.7-2.2-1-4-1h-5.1v8.5H50.8z"/>
	<path class="st0" d="M64.3,109.3V90.4H76v1H65.4V99h10.1v1H65.4v8.3h11l-0.3,1H64.3z"/>
</g>
<g>
	<path class="st0" d="M96.9,109.3l-2.4-6h-9.2l-2.3,6h-1.1l7.5-18.9h1.2l7.5,18.9H96.9z M89.9,91.5l-4.2,10.8h8.4L89.9,91.5z"/>
	<path class="st0" d="M115.9,90.4h1.1v11.5c0,5.2-2.3,7.8-6.8,7.8c-2.3,0-3.9-0.7-5.1-2c-1.1-1.3-1.7-3.3-1.7-5.9V90.4h1.1V102
		c0,2.3,0.5,4,1.4,5.2s2.4,1.7,4.3,1.7s3.4-0.6,4.3-1.7c0.9-1.1,1.4-2.8,1.4-5.2V90.4z"/>
</g>
<path class="st1" d="M20.4,5.5c1.3,0.5,2.3,1.1,3.2,1.8c0.8,0.7,1.5,1.4,2,2.2c0.5,0.7,0.8,1.3,0.9,1.6c0.6,1.2,1,2.4,1.3,3.7
	c0.3,1.3,0.5,2.4,0.6,3.4c0.1,1.3,0.3,2.5,0.3,3.7h2.4V2.3h-2.1c-0.1,0-0.4,0-0.5,0c0,1.4-0.5,2.3-1.3,2.8c-0.4,0.2-1,0.2-1.6,0
	C24.9,4.7,24,4.3,23,3.8c-0.4-0.2-0.8-0.4-1.2-0.5c-0.1,0-0.2-0.1-0.4-0.1c-0.5-0.2-1-0.3-1.5-0.5c-0.3-0.1-0.5-0.1-0.8-0.2
	c-0.3,0-0.5-0.1-0.8-0.1c-0.5,0-1.1-0.1-1.6-0.1c-0.5,0-1.1,0-1.6,0l0,0c-0.2,0-0.3,0-0.5,0c-0.2,0-0.3,0.1-0.5,0.1
	c-0.5,0.1-1.1,0.2-1.6,0.3C12,2.9,11.5,3,11,3.2c-0.5,0.2-1.1,0.4-1.6,0.7c-0.5,0.3-1,0.5-1.5,0.8c-0.1,0-0.1,0.1-0.2,0.1l0,0
	C6,6,4.5,7.4,3.3,9.2c-1.2,1.8-2,3.9-2.3,6.3c-0.5,2.8-0.8,6.3-0.9,10.6C0,30.4,0,35.7,0,42.1c0,4.8,0,9,0,12.5
	c0,3.5,0.1,6.6,0.3,9.3c0.2,2.6,0.5,4.8,1,6.7c0.5,1.8,1.2,3.4,2.2,4.8c1.5,2.2,3.4,3.9,5.7,5c2.3,1.1,4.6,1.7,6.9,1.7
	c4.8,0.1,8.5-1.2,11.1-3.9c2.6-2.7,3.9-6.4,3.9-11.2v-5.7h-2.6v3c0,2.9-0.3,5.3-0.9,7.3c-0.6,2-1.4,3.5-2.6,4.7
	c-1.1,1.2-2.4,2-4,2.5c-1.6,0.5-3.3,0.8-5.2,0.8c-2.4,0-4.3-1-5.9-2.9c-1.6-2-2.4-5.3-2.4-9.9c0-3.1,0-6.8-0.1-11.2
	c0-4.4-0.1-8.9-0.1-13.5c0-4.6,0-9,0.1-13.4c0-4.3,0.1-8,0.1-11.1c0-2.3,0.2-4.2,0.7-5.8c0.4-1.6,1.1-2.8,1.8-3.8
	c0.8-1,1.7-1.7,2.7-2.1c1-0.4,2.1-0.7,3.3-0.9C17.7,4.9,19.1,5,20.4,5.5L20.4,5.5z"/>
<g>
	<path class="st1" d="M47,75.6c0,1,0.2,1.8,0.5,2.3c0.3,0.5,0.6,0.8,0.9,0.8c0.4,0.2,0.8,0.2,1.4,0v2.9H36.5v-2.9
		c0.6,0.2,1.1,0.2,1.6,0c0.2-0.1,0.5-0.4,0.8-0.8c0.3-0.5,0.5-1.2,0.5-2.3V8.3c0-1.1-0.2-1.9-0.5-2.4c-0.3-0.5-0.6-0.8-0.8-0.9
		c-0.4-0.1-1-0.1-1.6,0V2.3h13.4V5c-0.6-0.1-1.1-0.1-1.4,0c-0.3,0.1-0.6,0.5-0.9,0.9C47.2,6.4,47,7.2,47,8.3V75.6z"/>
	<path class="st1" d="M88.4,2.3v11.8h-2.9c-0.1-1.8-0.3-3.3-0.7-4.7c-0.4-1.1-1-2.2-1.8-3.2c-0.9-1-2-1.5-3.5-1.5H75v70.9
		c0,1,0.1,1.8,0.4,2.3c0.3,0.5,0.6,0.8,1,0.8c0.4,0.2,0.8,0.2,1.3,0v2.9H64.3v-2.9c0.6,0.2,1.1,0.2,1.4,0c0.4-0.1,0.7-0.4,1.1-0.8
		c0.3-0.5,0.5-1.2,0.5-2.3V4.7h-4.7c-1.6,0-2.7,0.5-3.5,1.5c-0.8,1-1.4,2.1-1.7,3.2c-0.4,1.3-0.7,2.9-0.8,4.7h-3V2.3H88.4z"/>
	<path class="st1" d="M132.1,2.3V5c-0.4-0.1-1-0.1-1.6,0c-0.5,0.1-1,0.5-1.4,0.9c-0.4,0.5-0.9,1.3-1.2,2.4c0,0.1-0.4,1.5-1.3,4.1
		c-0.9,2.6-1.9,5.9-3.2,10c-1.3,4.1-2.7,8.6-4.3,13.5c-1.6,4.9-3.2,9.8-4.7,14.6v0.1v25.1c0,1,0.1,1.8,0.4,2.3
		c0.3,0.5,0.6,0.8,0.9,0.8c0.4,0.2,0.9,0.2,1.4,0v2.9h-13.3v-2.9c0.2,0.1,0.5,0.1,0.8,0.1c0.2,0,0.5,0,0.7-0.1
		c0.3-0.1,0.5-0.2,0.7-0.4c0.4-0.5,0.6-1.4,0.6-2.7V50.6c-1.2-4.8-2.4-9.7-3.7-14.6c-1.3-5-2.4-9.5-3.5-13.5c-1.1-4.1-2-7.4-2.7-10
		c-0.7-2.6-1.1-4-1.1-4c-0.2-1.1-0.6-1.9-1.1-2.4c-0.5-0.5-0.9-0.8-1.4-0.9c-0.7-0.1-1.3-0.1-1.8,0V2.3h14V5c-0.6-0.1-1-0.1-1.3,0
		c-0.4,0.1-0.6,0.5-0.8,0.9c-0.2,0.5-0.1,1.3,0.2,2.4c0,0.1,0.3,1.1,0.8,3.2c0.6,2.1,1.3,4.8,2.1,8.2c0.8,3.4,1.8,7.2,2.9,11.4
		c1.1,4.3,2.2,8.6,3.3,12.9c1.4-4.4,2.8-8.7,4.2-12.9c1.4-4.3,2.6-8.1,3.7-11.4c1.1-3.4,2-6.1,2.7-8.2c0.7-2.1,1.1-3.1,1.1-3.2
		c0.4-1.1,0.5-1.9,0.3-2.4c-0.1-0.5-0.4-0.8-0.8-0.9c-0.3-0.1-0.7-0.1-1.3,0V2.3H132.1z"/>
</g>
</svg>
